<svg width="150" height="61" viewBox="0 0 150 61" fill="none" xmlns="http://www.w3.org/2000/svg">
<ellipse cx="2.08346" cy="0.847273" rx="2.08346" ry="0.847273" fill="#FFE2AA"/>
<ellipse cx="2.08346" cy="33.7948" rx="2.08346" ry="0.847273" fill="#FFE2AA"/>
<ellipse cx="83.1018" cy="0.847273" rx="2.08346" ry="0.847273" fill="#FFE2AA"/>
<ellipse cx="83.1018" cy="33.7948" rx="2.08346" ry="0.847273" fill="#FFE2AA"/>
<ellipse cx="2.08346" cy="7.43663" rx="2.08346" ry="0.847273" fill="#FFE2AA"/>
<ellipse cx="2.08346" cy="40.3841" rx="2.08346" ry="0.847273" fill="#FFE2AA"/>
<ellipse cx="83.1018" cy="7.43663" rx="2.08346" ry="0.847273" fill="#FFE2AA"/>
<ellipse cx="83.1018" cy="40.3841" rx="2.08346" ry="0.847273" fill="#FFE2AA"/>
<ellipse cx="2.08346" cy="14.0262" rx="2.08346" ry="0.847273" fill="#FFE2AA"/>
<ellipse cx="2.08346" cy="46.9737" rx="2.08346" ry="0.847273" fill="#FFE2AA"/>
<ellipse cx="83.1018" cy="14.0262" rx="2.08346" ry="0.847273" fill="#FFE2AA"/>
<ellipse cx="83.1018" cy="46.9737" rx="2.08346" ry="0.847273" fill="#FFE2AA"/>
<ellipse cx="2.08346" cy="20.6158" rx="2.08346" ry="0.847273" fill="#FFE2AA"/>
<ellipse cx="2.08346" cy="53.5633" rx="2.08346" ry="0.847273" fill="#FFE2AA"/>
<ellipse cx="83.1018" cy="20.6158" rx="2.08346" ry="0.847273" fill="#FFE2AA"/>
<ellipse cx="83.1018" cy="53.5633" rx="2.08346" ry="0.847273" fill="#FFE2AA"/>
<ellipse cx="2.08346" cy="27.2052" rx="2.08346" ry="0.847273" fill="#FFE2AA"/>
<ellipse cx="2.08346" cy="60.1527" rx="2.08346" ry="0.847273" fill="#FFE2AA"/>
<ellipse cx="83.1018" cy="27.2052" rx="2.08346" ry="0.847273" fill="#FFE2AA"/>
<ellipse cx="83.1018" cy="60.1527" rx="2.08346" ry="0.847273" fill="#FFE2AA"/>
<ellipse cx="18.2871" cy="0.847273" rx="2.08346" ry="0.847273" fill="#FFE2AA"/>
<ellipse cx="18.2871" cy="33.7948" rx="2.08346" ry="0.847273" fill="#FFE2AA"/>
<ellipse cx="99.3055" cy="0.847273" rx="2.08346" ry="0.847273" fill="#FFE2AA"/>
<ellipse cx="99.3055" cy="33.7948" rx="2.08346" ry="0.847273" fill="#FFE2AA"/>
<ellipse cx="18.2871" cy="7.43663" rx="2.08346" ry="0.847273" fill="#FFE2AA"/>
<ellipse cx="18.2871" cy="40.3841" rx="2.08346" ry="0.847273" fill="#FFE2AA"/>
<ellipse cx="99.3055" cy="7.43663" rx="2.08346" ry="0.847273" fill="#FFE2AA"/>
<ellipse cx="99.3055" cy="40.3841" rx="2.08346" ry="0.847273" fill="#FFE2AA"/>
<ellipse cx="18.2871" cy="14.0262" rx="2.08346" ry="0.847273" fill="#FFE2AA"/>
<ellipse cx="18.2871" cy="46.9737" rx="2.08346" ry="0.847273" fill="#FFE2AA"/>
<ellipse cx="99.3055" cy="14.0262" rx="2.08346" ry="0.847273" fill="#FFE2AA"/>
<ellipse cx="99.3055" cy="46.9737" rx="2.08346" ry="0.847273" fill="#FFE2AA"/>
<ellipse cx="18.2871" cy="20.6158" rx="2.08346" ry="0.847273" fill="#FFE2AA"/>
<ellipse cx="18.2871" cy="53.5633" rx="2.08346" ry="0.847273" fill="#FFE2AA"/>
<ellipse cx="99.3055" cy="20.6158" rx="2.08346" ry="0.847273" fill="#FFE2AA"/>
<ellipse cx="99.3055" cy="53.5633" rx="2.08346" ry="0.847273" fill="#FFE2AA"/>
<ellipse cx="18.2871" cy="27.2052" rx="2.08346" ry="0.847273" fill="#FFE2AA"/>
<ellipse cx="18.2871" cy="60.1527" rx="2.08346" ry="0.847273" fill="#FFE2AA"/>
<ellipse cx="99.3055" cy="27.2052" rx="2.08346" ry="0.847273" fill="#FFE2AA"/>
<ellipse cx="99.3055" cy="60.1527" rx="2.08346" ry="0.847273" fill="#FFE2AA"/>
<ellipse cx="34.4908" cy="0.847273" rx="2.08346" ry="0.847273" fill="#FFE2AA"/>
<ellipse cx="34.4908" cy="33.7948" rx="2.08346" ry="0.847273" fill="#FFE2AA"/>
<ellipse cx="115.509" cy="0.847273" rx="2.08346" ry="0.847273" fill="#FFE2AA"/>
<ellipse cx="115.509" cy="33.7948" rx="2.08346" ry="0.847273" fill="#FFE2AA"/>
<ellipse cx="34.4908" cy="7.43663" rx="2.08346" ry="0.847273" fill="#FFE2AA"/>
<ellipse cx="34.4908" cy="40.3841" rx="2.08346" ry="0.847273" fill="#FFE2AA"/>
<ellipse cx="115.509" cy="7.43663" rx="2.08346" ry="0.847273" fill="#FFE2AA"/>
<ellipse cx="115.509" cy="40.3841" rx="2.08346" ry="0.847273" fill="#FFE2AA"/>
<ellipse cx="34.4908" cy="14.0262" rx="2.08346" ry="0.847273" fill="#FFE2AA"/>
<ellipse cx="34.4908" cy="46.9737" rx="2.08346" ry="0.847273" fill="#FFE2AA"/>
<ellipse cx="115.509" cy="14.0262" rx="2.08346" ry="0.847273" fill="#FFE2AA"/>
<ellipse cx="115.509" cy="46.9737" rx="2.08346" ry="0.847273" fill="#FFE2AA"/>
<ellipse cx="34.4908" cy="20.6158" rx="2.08346" ry="0.847273" fill="#FFE2AA"/>
<ellipse cx="34.4908" cy="53.5633" rx="2.08346" ry="0.847273" fill="#FFE2AA"/>
<ellipse cx="115.509" cy="20.6158" rx="2.08346" ry="0.847273" fill="#FFE2AA"/>
<ellipse cx="115.509" cy="53.5633" rx="2.08346" ry="0.847273" fill="#FFE2AA"/>
<ellipse cx="34.4908" cy="27.2052" rx="2.08346" ry="0.847273" fill="#FFE2AA"/>
<ellipse cx="34.4908" cy="60.1527" rx="2.08346" ry="0.847273" fill="#FFE2AA"/>
<ellipse cx="115.509" cy="27.2052" rx="2.08346" ry="0.847273" fill="#FFE2AA"/>
<ellipse cx="115.509" cy="60.1527" rx="2.08346" ry="0.847273" fill="#FFE2AA"/>
<ellipse cx="50.6945" cy="0.847273" rx="2.08346" ry="0.847273" fill="#FFE2AA"/>
<ellipse cx="50.6945" cy="33.7948" rx="2.08346" ry="0.847273" fill="#FFE2AA"/>
<ellipse cx="131.713" cy="0.847273" rx="2.08346" ry="0.847273" fill="#FFE2AA"/>
<ellipse cx="131.713" cy="33.7948" rx="2.08346" ry="0.847273" fill="#FFE2AA"/>
<ellipse cx="50.6945" cy="7.43663" rx="2.08346" ry="0.847273" fill="#FFE2AA"/>
<ellipse cx="50.6945" cy="40.3841" rx="2.08346" ry="0.847273" fill="#FFE2AA"/>
<ellipse cx="131.713" cy="7.43663" rx="2.08346" ry="0.847273" fill="#FFE2AA"/>
<ellipse cx="131.713" cy="40.3841" rx="2.08346" ry="0.847273" fill="#FFE2AA"/>
<ellipse cx="50.6945" cy="14.0262" rx="2.08346" ry="0.847273" fill="#FFE2AA"/>
<ellipse cx="50.6945" cy="46.9737" rx="2.08346" ry="0.847273" fill="#FFE2AA"/>
<ellipse cx="131.713" cy="14.0262" rx="2.08346" ry="0.847273" fill="#FFE2AA"/>
<ellipse cx="131.713" cy="46.9737" rx="2.08346" ry="0.847273" fill="#FFE2AA"/>
<ellipse cx="50.6945" cy="20.6158" rx="2.08346" ry="0.847273" fill="#FFE2AA"/>
<ellipse cx="50.6945" cy="53.5633" rx="2.08346" ry="0.847273" fill="#FFE2AA"/>
<ellipse cx="131.713" cy="20.6158" rx="2.08346" ry="0.847273" fill="#FFE2AA"/>
<ellipse cx="131.713" cy="53.5633" rx="2.08346" ry="0.847273" fill="#FFE2AA"/>
<ellipse cx="50.6945" cy="27.2052" rx="2.08346" ry="0.847273" fill="#FFE2AA"/>
<ellipse cx="50.6945" cy="60.1527" rx="2.08346" ry="0.847273" fill="#FFE2AA"/>
<ellipse cx="131.713" cy="27.2052" rx="2.08346" ry="0.847273" fill="#FFE2AA"/>
<ellipse cx="131.713" cy="60.1527" rx="2.08346" ry="0.847273" fill="#FFE2AA"/>
<ellipse cx="66.8981" cy="0.847273" rx="2.08346" ry="0.847273" fill="#FFE2AA"/>
<ellipse cx="66.8981" cy="33.7948" rx="2.08346" ry="0.847273" fill="#FFE2AA"/>
<ellipse cx="147.916" cy="0.847273" rx="2.08346" ry="0.847273" fill="#FFE2AA"/>
<ellipse cx="147.916" cy="33.7948" rx="2.08346" ry="0.847273" fill="#FFE2AA"/>
<ellipse cx="66.8981" cy="7.43663" rx="2.08346" ry="0.847273" fill="#FFE2AA"/>
<ellipse cx="66.8981" cy="40.3841" rx="2.08346" ry="0.847273" fill="#FFE2AA"/>
<ellipse cx="147.916" cy="7.43663" rx="2.08346" ry="0.847273" fill="#FFE2AA"/>
<ellipse cx="147.916" cy="40.3841" rx="2.08346" ry="0.847273" fill="#FFE2AA"/>
<ellipse cx="66.8981" cy="14.0262" rx="2.08346" ry="0.847273" fill="#FFE2AA"/>
<ellipse cx="66.8981" cy="46.9737" rx="2.08346" ry="0.847273" fill="#FFE2AA"/>
<ellipse cx="147.916" cy="14.0262" rx="2.08346" ry="0.847273" fill="#FFE2AA"/>
<ellipse cx="147.916" cy="46.9737" rx="2.08346" ry="0.847273" fill="#FFE2AA"/>
<ellipse cx="66.8981" cy="20.6158" rx="2.08346" ry="0.847273" fill="#FFE2AA"/>
<ellipse cx="66.8981" cy="53.5633" rx="2.08346" ry="0.847273" fill="#FFE2AA"/>
<ellipse cx="147.916" cy="20.6158" rx="2.08346" ry="0.847273" fill="#FFE2AA"/>
<ellipse cx="147.916" cy="53.5633" rx="2.08346" ry="0.847273" fill="#FFE2AA"/>
<ellipse cx="66.8981" cy="27.2052" rx="2.08346" ry="0.847273" fill="#FFE2AA"/>
<ellipse cx="66.8981" cy="60.1527" rx="2.08346" ry="0.847273" fill="#FFE2AA"/>
<ellipse cx="147.916" cy="27.2052" rx="2.08346" ry="0.847273" fill="#FFE2AA"/>
<ellipse cx="147.916" cy="60.1527" rx="2.08346" ry="0.847273" fill="#FFE2AA"/>
</svg>
